<?xml version="1.0" encoding="utf-8"?>
<!-- Generator: Adobe Illustrator 23.0.6, SVG Export Plug-In . SVG Version: 6.00 Build 0)  -->
<svg version="1.1" id="Layer_1" xmlns="http://www.w3.org/2000/svg" xmlns:xlink="http://www.w3.org/1999/xlink" x="0px" y="0px"
	 viewBox="0 0 50 50" style="enable-background:new 0 0 50 50;" xml:space="preserve">
<style type="text/css">
	.st0{fill:#272C51;}
	.st1{fill:#FFFFFF;}
	.st2{fill:#CFD8DC;}
	.st3{fill:#CAD9FC;}
	.st4{fill:#02A9F4;}
	.st5{opacity:0.9;fill:#0277BC;}
	.st6{opacity:0.25;fill:#F5F5F5;}
	.st7{fill:#428DFF;}
	.st8{fill:#363E6A;}
	.st9{fill:none;stroke:#FFB902;stroke-width:0.9204;stroke-linecap:round;stroke-linejoin:round;stroke-miterlimit:10;}
</style>
<rect class="st0" width="50" height="50"/>
<g id="Icons_copy" transform="translate(1 1)">
	<path id="Shape" class="st1" d="M30.3,40.2c-1.6,2-4.1,3.1-6.6,3.1s-5-1.1-6.6-3.1C21.5,40.8,25.9,40.8,30.3,40.2z"/>
	<path class="st2" d="M28.1,40.5c-1.4,1.6-3.3,2.6-5.4,2.8c2.9,0.4,5.8-0.8,7.7-3C29.6,40.3,28.8,40.4,28.1,40.5L28.1,40.5z"/>
	<path class="st1" d="M40.3,34.7c0,3-4.4,4.8-10,5.6c-4.4,0.6-8.9,0.6-13.3,0C11.4,39.5,7,37.7,7,34.7s4.4-4.8,10-5.6
		c-0.6,0.7-1.1,1.6-1.5,2.5c-9.7,1.8-4.8,5.2,5.2,5.7c5.6,0.3,11.3-0.5,11.3-0.7c5.8-1.2,7.1-3.5,0.2-4.9v-2.3
		C36.9,30.3,40.3,32,40.3,34.7z"/>
	<path class="st2" d="M32.3,29.4v0.5c3.6,1,6,2.5,6,4.8c0,3-4.4,4.8-10,5.6c-1.9,0.3-3.8,0.4-5.7,0.4c2.6,0.1,5.1-0.1,7.7-0.4
		c5.6-0.8,10-2.6,10-5.6C40.3,32,36.9,30.3,32.3,29.4z"/>
	<path class="st2" d="M30.7,15.6c-0.2,0.3-0.4,0.6-0.6,0.9c-2,2.6-5.5,3.5-8.6,2.3l-0.1,0c-2.6-1.1-4.3-3.6-4.5-6.4
		c0-0.1,0-0.3,0-0.4c0-3.3,2.3-6.2,5.5-7.1s6.6,0.6,8.2,3.5c-2.7-1.7-6.8-1.4-9.1,0.7c-0.8,0.7-1.3,1.8-1.3,2.9s0.5,2.2,1.3,2.9
		C23.9,17,28,17.3,30.7,15.6z"/>
	<path class="st3" d="M28.1,7.5c0.9,0.1,1.9,0.5,2.7,1c-1.3-2.3-3.7-3.8-6.4-3.8c-0.3,0-0.6,0-1,0.1C25.2,5,26.9,6,28.1,7.5
		L28.1,7.5z"/>
	<path class="st1" d="M28.1,16.6c-0.8,1-1.9,1.8-3.1,2.3c-0.5,0.2-1.1,0.4-1.7,0.4c1.3,0.2,2.5,0,3.7-0.4c1.2-0.5,2.3-1.3,3.1-2.3
		c0.2-0.3,0.4-0.6,0.6-0.9C29.9,16.1,29,16.4,28.1,16.6L28.1,16.6z"/>
	<path class="st4" d="M31.1,14.9c-0.1,0.2-0.2,0.4-0.3,0.7c-2.7,1.7-6.9,1.4-9.1-0.7c-0.8-0.7-1.3-1.8-1.3-2.9s0.5-2.2,1.3-2.9
		c2.3-2.1,6.4-2.4,9.1-0.7C31.9,10.4,32,12.8,31.1,14.9L31.1,14.9z"/>
	<path class="st5" d="M30.7,8.4c-1.5-0.9-3.3-1.3-5.1-1c1.1,0.1,2.1,0.5,3.1,1c1.1,2,1.3,4.4,0.3,6.5c-0.1,0.2-0.2,0.4-0.3,0.7
		c-0.9,0.6-2,0.9-3.1,1c1.8,0.2,3.5-0.1,5.1-1c0.1-0.2,0.2-0.4,0.3-0.7C32,12.8,31.9,10.4,30.7,8.4L30.7,8.4z"/>
	<path class="st1" d="M27.3,25.1c-0.4,0.6-1,0.9-1.7,0.9c-0.6,0-0.6-0.1-4.9-2.2c-2.4-1.2-3.7-3.8-3.2-6.4c0.2-1.2,0.2-1.4,0.4-1.8
		c0.8,1.4,2,2.5,3.5,3.1c0.1,0.6,0.5,1.2,1.1,1.5l4,2c0.3,0.2,0.6,0.4,0.8,0.7C27.8,23.6,27.7,24.5,27.3,25.1L27.3,25.1z"/>
	<path class="st1" d="M31.7,23.5c-0.7,2.6-3.2,2.2-3.9,0.8c-0.1-0.2-0.1-0.3-0.2-0.5c-0.2-1.1,0.7-1.8-0.7-4.9
		c1.2-0.5,2.3-1.3,3.1-2.3c0.9,0.8,1.3,2.4,1.5,3.6C31.9,21.2,32,22.3,31.7,23.5L31.7,23.5z"/>
	<g>
		<path class="st1" d="M27.7,26.3v6.6c0,1.1-0.8,2.1-1.8,2.3c-0.7,0.1-1.4,0-2-0.5C23.3,34.4,23,33.7,23,33v-4.3
			c0-0.3-0.2-0.6-0.5-0.7c0,0-3.1-0.8-3.2-0.8c-0.9-0.3-1.6-1.2-1.6-2.2v-4.9c0.5,1.6,1.6,2.9,3.1,3.7c4.3,2.2,4.3,2.2,4.9,2.2
			c0.7,0,1.3-0.3,1.7-0.9C27.5,25.5,27.7,25.9,27.7,26.3L27.7,26.3z"/>
		<path class="st1" d="M27.7,23.7L27.7,23.7c-0.1-0.3-0.2-0.5-0.3-0.8c-0.2-0.3-0.5-0.6-0.8-0.7l-4-2c-0.6-0.3-1-0.8-1.1-1.5l0.1,0
			c1.8,0.7,3.7,0.7,5.5,0C28.4,21.9,27.5,22.7,27.7,23.7L27.7,23.7z"/>
		<path class="st1" d="M32.3,25v6.7c0,0.3-0.1,0.7-0.2,1c-0.5,1-1.6,1.5-2.6,1.3c-1.1-0.2-1.8-1.2-1.8-2.3v-5.3
			c0-0.4-0.1-0.9-0.3-1.2c0.3-0.4,0.4-0.9,0.3-1.4h0.1c0,0.2,0.1,0.3,0.2,0.5c0.6,1.4,3.2,1.8,3.9-0.8C32.1,23.9,32.3,24.4,32.3,25z
			"/>
	</g>
	<path class="st2" d="M31.7,23.5c-0.1,0.8-0.7,1.5-1.4,1.8v6.5c0,0.3-0.1,0.7-0.2,1c-0.2,0.5-0.6,0.9-1.1,1.1c0.3,0.2,0.7,0.2,1,0.2
		c0.9,0,1.7-0.5,2.1-1.3c0.1-0.3,0.2-0.6,0.2-1V25C32.3,24.4,32.1,23.9,31.7,23.5L31.7,23.5z"/>
	<path class="st2" d="M19.3,27.2c-0.3,0.2-0.6,0.3-0.8,0.6l-1.7-0.7c-0.7-0.3-1.1-0.9-1.2-1.6l-1.6-10.5c-0.1-1,0.5-1.9,1.4-2.2
		l1.6-0.5c0.1,1.1,0.4,2.2,0.9,3.2c-0.3,0.4-0.3,0.6-0.4,1.8c-0.2,0.9-0.1,1.8,0.2,2.7V25C17.7,26,18.3,26.9,19.3,27.2z"/>
	<path class="st1" d="M32.1,36.6c0,0.2-5.9,1-11.3,0.7c-1.9-0.1-3.7-0.3-5.5-0.7c-0.8-3.3,0.5-6.8,3.2-8.8c0.3-0.2,0.5-0.4,0.8-0.6
		c0.2,0.1,3.2,0.8,3.2,0.8c0.3,0.1,0.5,0.3,0.5,0.6V33c0,0.7,0.3,1.4,0.9,1.8c0.5,0.4,1.3,0.6,2,0.5c1.1-0.2,1.9-1.2,1.8-2.3v-1.3
		c0,1.1,0.8,2,1.8,2.3c1.1,0.2,2.1-0.3,2.6-1.3C32.4,34,32.4,35.3,32.1,36.6L32.1,36.6z"/>
</g>
<path class="st1" d="M25.7,44.3c-2.9,0.3-5.8-0.8-7.6-3c-5.6-0.8-10-2.6-10-5.6s4.4-4.8,10-5.6c0.4-0.5,0.9-0.9,1.4-1.3l-1.7-0.7
	c-0.7-0.3-1.1-0.9-1.2-1.6l-1.6-10.5c-0.1-1,0.5-1.9,1.4-2.2l1.6-0.5c0-0.1,0-0.3,0-0.4c0-4,3.3-7.3,7.3-7.3c0.3,0,0.7,0,1,0.1
	C22.7,6.2,20,9.3,20,13c0,0.1,0,0.3,0,0.4l-1.7,0.5c-1,0.3-1.6,1.2-1.4,2.2l1.6,10.5c0.1,0.7,0.6,1.3,1.2,1.6l1.7,0.7
	c-0.5,0.4-1,0.8-1.4,1.3c-0.8,0.1-1.6,0.2-2.3,0.4c-4.5,0.9-7.7,2.6-7.7,5.2c0,3,4.4,4.8,10,5.6C21.4,42.9,23.5,44,25.7,44.3
	L25.7,44.3z"/>
<path id="Rectangle-path" class="st1" d="M15,21.4l1.3-0.2l0.8,5.3l-1.3,0.2L15,21.4z"/>
<path class="st0" d="M34,29.9V26c0-0.6-0.2-1.2-0.5-1.7c0.2-1.1,0.1-2.2-0.1-3.3c-0.2-1.3-0.6-2.5-1.3-3.5c0.1-0.2,0.2-0.3,0.3-0.5
	c0.1-0.3,0.3-0.5,0.4-0.8c0.4-1,0.7-2.1,0.7-3.2c0-1.4-0.3-2.7-1-3.9v0c-1.3-2.3-3.7-3.8-6.4-4c-2.7-0.2-5.3,1-6.9,3.1
	c-1.1,1.4-1.7,3.1-1.7,4.8l-1.2,0.3c-1.3,0.4-2.1,1.6-1.9,3l0.8,5.2c0.1,0.4,0.4,0.6,0.8,0.6c0.2,0,0.3-0.1,0.4-0.3
	c0.1-0.1,0.1-0.3,0.1-0.5L15.6,16c-0.1-0.7,0.3-1.3,0.9-1.5l0.9-0.3c0.1,0.8,0.4,1.6,0.8,2.4c-0.1,0.2-0.1,0.4-0.2,0.6l-0.2,1.1
	c-0.2,0.9-0.1,1.9,0.1,2.8V26c0,0.6,0.2,1.2,0.5,1.7L18,27.5c-0.4-0.2-0.8-0.6-0.8-1c0-0.2-0.2-0.4-0.4-0.5s-0.5-0.1-0.7,0.1
	s-0.3,0.4-0.2,0.6c0.1,0.9,0.8,1.7,1.7,2.1l0.7,0.3c-0.2,0.2-0.3,0.3-0.5,0.5C11,30.4,7.3,32.6,7.3,35.7c0,3.1,3.7,5.3,10.4,6.2
	c1.8,2,4.3,3.1,7,3.1s5.2-1.1,7-3.1c6.7-0.9,10.4-3.1,10.4-6.2C42,33,39.2,31,34,29.9L34,29.9z M15.4,36.7c-2.5-0.6-3.4-1.3-3.4-1.6
	c0-0.3,0.9-1,3.6-1.7c-0.2,0.7-0.3,1.4-0.3,2.2C15.3,36,15.4,36.4,15.4,36.7L15.4,36.7z M16.9,37.1L16.9,37.1
	c-0.1-0.5-0.2-0.9-0.2-1.4c0-1.9,0.7-3.7,1.9-5.1c0.4-0.5,0.8-0.9,1.3-1.2c0.2-0.1,0.3-0.3,0.5-0.4l3,0.7V34c0,0.8,0.3,1.6,0.9,2.1
	c0.6,0.6,1.3,0.9,2.1,0.9c0.2,0,0.4,0,0.6-0.1c1-0.2,1.8-1,2.2-1.9c0.5,0.4,1.2,0.7,1.9,0.7c0.6,0,1.2-0.2,1.7-0.5v0.5
	c0,0.5,0,0.9-0.1,1.4h-0.1c-2.6,0.4-5.2,0.6-7.8,0.6C22.1,37.7,19.4,37.5,16.9,37.1L16.9,37.1z M19.2,18.5l0.1-0.4
	c0.7,0.9,1.6,1.6,2.7,2.1c0.2,0.7,0.7,1.3,1.3,1.6l4,2c0.2,0.1,0.4,0.3,0.5,0.5c0.3,0.5,0.2,1.2-0.2,1.6c-0.4,0.4-1,0.6-1.6,0.3
	l-4-2c-1.3-0.7-2.3-1.9-2.7-3.3C19.1,20.1,19,19.3,19.2,18.5L19.2,18.5z M27.6,20.7c0.3,0.6,0.4,1.3,0.5,1.9c0,0.1,0,0.1,0,0.2
	c-0.1-0.1-0.2-0.1-0.3-0.2L24.5,21c0.3,0,0.5,0,0.8,0C26.1,21,26.9,20.9,27.6,20.7z M19.3,23.7c0.6,0.7,1.3,1.2,2.1,1.7l4,2
	c0.4,0.2,0.8,0.3,1.2,0.3c0.5,0,0.9-0.1,1.3-0.4v6.6c0,0.8-0.5,1.6-1.3,1.8c-0.5,0.1-1,0-1.4-0.3c-0.4-0.3-0.6-0.8-0.6-1.3v-4.4
	c0-0.6-0.4-1.1-1-1.3l-3.1-0.8h-0.1c-0.7-0.2-1.1-0.9-1.1-1.6V23.7z M33.8,33.7l0.1-0.2c2.8,0.7,3.5,1.4,3.5,1.6
	c0,0.2-0.8,1-3.4,1.6C34.1,35.7,34,34.7,33.8,33.7z M32.7,32.7c0,0.2-0.1,0.5-0.2,0.7c-0.3,0.7-1.1,1.1-1.9,0.9
	c-0.8-0.2-1.3-0.8-1.3-1.6v-5.3c0-0.3,0-0.5-0.1-0.8c0.2,0.1,0.4,0.2,0.7,0.3c0.2,0.1,0.5,0.1,0.8,0.1c0.5,0,1-0.1,1.4-0.4
	c0.2-0.1,0.4-0.3,0.6-0.5V32.7z M32,21.2c0.2,1,0.5,3.5-0.7,4.2c-0.3,0.2-0.7,0.3-1.1,0.1c-0.3-0.1-0.6-0.3-0.8-0.7
	c-0.1-0.4-0.1-0.8,0-1.3c0.1-0.4,0.1-0.8,0.1-1.2c-0.1-0.8-0.3-1.5-0.6-2.3c0.8-0.4,1.6-1,2.2-1.6C31.6,19.4,31.9,20.3,32,21.2z
	 M31.2,9.9c0.5,1,0.8,2,0.8,3.1c0,0.9-0.2,1.8-0.5,2.7c-0.1,0.2-0.1,0.3-0.2,0.4c-1.1,0.6-2.3,0.9-3.6,0.9c-0.7,0-1.5-0.1-2.2-0.3
	c-0.9-0.2-1.7-0.7-2.3-1.3C22.4,14.8,22,13.9,22,13c0-0.9,0.4-1.8,1.1-2.4C24.4,9.5,26,9,27.7,9C28.9,9,30.1,9.3,31.2,9.9z
	 M20.1,8.9c1.1-1.4,2.7-2.3,4.5-2.5c1.8-0.2,3.6,0.3,5,1.5c-0.6-0.1-1.3-0.2-1.9-0.2c-2,0-4,0.7-5.5,2c-0.9,0.9-1.5,2.1-1.5,3.3
	c0,1.3,0.6,2.5,1.5,3.3c0.8,0.8,1.8,1.3,2.9,1.6c0.8,0.3,1.7,0.4,2.6,0.4c0.6,0,1.3-0.1,1.9-0.2c-1.2,1-2.7,1.5-4.2,1.6
	c-0.9,0-1.7-0.2-2.5-0.5c-1.9-0.8-3.4-2.4-3.9-4.5S18.8,10.6,20.1,8.9z M20,42.1c1.5,0.1,3.1,0.2,4.7,0.2c1.6,0,3.2-0.1,4.7-0.2
	C26.6,44.2,22.8,44.2,20,42.1z M31.2,40.6C29,40.9,26.9,41,24.7,41c-2.2,0-4.4-0.1-6.5-0.4c-5.9-0.8-9.5-2.6-9.5-4.9
	c0-2.1,2.9-3.8,7.9-4.7c-0.2,0.3-0.4,0.7-0.5,1c-3.6,0.7-5.4,1.8-5.4,3.1s1.8,2.4,5.5,3.1l0.5,0.1c2.7,0.4,5.3,0.7,8,0.6
	c2.7,0,5.4-0.2,8-0.7l0.5-0.1c3.6-0.7,5.4-1.8,5.4-3.1c0-1.4-1.6-2.3-4.7-3v-0.9c4.2,0.9,6.7,2.5,6.7,4.4
	C40.7,38,37.1,39.8,31.2,40.6L31.2,40.6z"/>
<path class="st6" d="M26.7,10.3c0,0.4,0.3,0.7,0.7,0.7c0.1,0,2.7,0,2.7,2c0,0.4,0.3,0.7,0.7,0.7s0.7-0.3,0.7-0.7
	c0-2.7-2.6-3.3-4-3.3C27,9.7,26.7,10,26.7,10.3z"/>
<path class="st7" d="M16.1,24.6c-0.4,0-0.7-0.3-0.7-0.7s0.3-0.7,0.7-0.7s0.7,0.3,0.7,0.7S16.5,24.6,16.1,24.6z"/>
<path class="st8" d="M39.3,24.6c-0.4,0-0.7,0.3-0.7,0.7V26H38c-0.4,0-0.7,0.3-0.7,0.7s0.3,0.7,0.7,0.7h0.7V28c0,0.4,0.3,0.7,0.7,0.7
	c0.4,0,0.7-0.3,0.7-0.7v-0.7h0.7c0.4,0,0.7-0.3,0.7-0.7S41,26,40.7,26H40v-0.7C40,24.9,39.7,24.6,39.3,24.6z"/>
<g>
	<line class="st9" x1="8.9" y1="12.8" x2="8.9" y2="16.1"/>
	<line class="st9" x1="10.5" y1="14.5" x2="7.2" y2="14.5"/>
</g>
<g>
	<line class="st9" x1="39.3" y1="25" x2="39.3" y2="28.3"/>
	<line class="st9" x1="41" y1="26.6" x2="37.7" y2="26.6"/>
</g>
<g>
	<line class="st9" x1="40.7" y1="7.3" x2="40.7" y2="10.7"/>
	<line class="st9" x1="42.3" y1="9" x2="39" y2="9"/>
</g>
</svg>
